<svg width="48" height="48" viewBox="0 0 48 48" fill="none" xmlns="http://www.w3.org/2000/svg">
<g filter="url(#filter0_d_1_44)">
<path d="M24 40C35.0457 40 44 31.0457 44 20C44 8.9543 35.0457 0 24 0C12.9543 0 4 8.9543 4 20C4 31.0457 12.9543 40 24 40Z" fill="#121212"/>
</g>
<path d="M16.7099 8.2085H23.8193C26.8609 8.2085 29.163 8.63558 30.7255 9.48975C32.288 10.3439 33.0693 11.8439 33.0693 13.9897C33.0693 14.8543 32.9286 15.6356 32.6474 16.3335C32.3766 17.0314 31.9807 17.6043 31.4599 18.0522C30.9391 18.5002 30.3036 18.7918 29.5536 18.9272V19.0835C30.3141 19.2397 31.0016 19.5106 31.6161 19.896C32.2307 20.271 32.7203 20.8231 33.0849 21.5522C33.4599 22.271 33.6474 23.2293 33.6474 24.4272C33.6474 25.8127 33.3089 27.0002 32.6318 27.9897C31.9547 28.9793 30.9859 29.7397 29.7255 30.271C28.4755 30.7918 26.9859 31.0522 25.2568 31.0522H16.7099V8.2085ZM21.5536 17.2554H24.3661C25.7724 17.2554 26.7464 17.0366 27.288 16.5991C27.8297 16.1512 28.1005 15.495 28.1005 14.6304C28.1005 13.7554 27.7776 13.1304 27.1318 12.7554C26.4964 12.37 25.4859 12.1772 24.1005 12.1772H21.5536V17.2554ZM21.5536 21.0991V27.0522H24.7099C26.1682 27.0522 27.1839 26.771 27.7568 26.2085C28.3297 25.646 28.6161 24.8908 28.6161 23.9429C28.6161 23.3804 28.4911 22.8856 28.2411 22.4585C27.9911 22.0314 27.5693 21.6981 26.9755 21.4585C26.3922 21.2189 25.5849 21.0991 24.5536 21.0991H21.5536Z" fill="white"/>
<defs>
<filter id="filter0_d_1_44" x="0" y="0" width="48" height="48" filterUnits="userSpaceOnUse" color-interpolation-filters="sRGB">
<feFlood flood-opacity="0" result="BackgroundImageFix"/>
<feColorMatrix in="SourceAlpha" type="matrix" values="0 0 0 0 0 0 0 0 0 0 0 0 0 0 0 0 0 0 127 0" result="hardAlpha"/>
<feOffset dy="4"/>
<feGaussianBlur stdDeviation="2"/>
<feComposite in2="hardAlpha" operator="out"/>
<feColorMatrix type="matrix" values="0 0 0 0 0 0 0 0 0 0 0 0 0 0 0 0 0 0 0.25 0"/>
<feBlend mode="normal" in2="BackgroundImageFix" result="effect1_dropShadow_1_44"/>
<feBlend mode="normal" in="SourceGraphic" in2="effect1_dropShadow_1_44" result="shape"/>
</filter>
</defs>
</svg>
