<svg width="13" height="13" viewBox="0 0 13 13" fill="none" xmlns="http://www.w3.org/2000/svg">
<path d="M9.53232 8.38358H8.9299L8.71639 8.17781C9.63145 7.11087 10.1042 5.65526 9.84496 4.1082C9.48656 1.98956 7.71745 0.297696 5.58232 0.0385818C2.35675 -0.35771 -0.35792 2.35537 0.0386044 5.57905C0.29787 7.71293 1.99073 9.481 4.11061 9.83919C5.65858 10.0983 7.11504 9.6258 8.18261 8.71128L8.3885 8.92467V9.52673L11.6293 12.7657C11.942 13.0781 12.4529 13.0781 12.7655 12.7657C13.0782 12.4532 13.0782 11.9426 12.7655 11.6301L9.53232 8.38358ZM4.95703 8.38358C3.05829 8.38358 1.52557 6.85176 1.52557 4.95413C1.52557 3.0565 3.05829 1.52468 4.95703 1.52468C6.85578 1.52468 8.3885 3.0565 8.3885 4.95413C8.3885 6.85176 6.85578 8.38358 4.95703 8.38358Z" fill="#121212"/>
</svg>
